<?xml version="1.0" encoding="UTF-8"?>
<svg xmlns="http://www.w3.org/2000/svg" id="Icons" viewBox="0 0 74 74" width="38" height="38" fill="#fff"><path d="M49.982,26.844A1,1,0,0,1,49,26.03C46.98,15.4,42.157,8.25,37,8.25S27.02,15.4,25,26.03a1,1,0,0,1-1.965-.373C25.274,13.868,30.756,6.25,37,6.25s11.726,7.618,13.966,19.407a1,1,0,0,1-.984,1.187Z"/><path d="M37,67.75c-6.244,0-11.726-7.618-13.966-19.407A1,1,0,1,1,25,47.97C27.02,58.6,31.843,65.75,37,65.75S46.98,58.6,49,47.97a1,1,0,0,1,1.965.373C48.726,60.132,43.244,67.75,37,67.75Z"/><path d="M37,67.75a1,1,0,0,1-1-1V48.156a1,1,0,0,1,2,0V66.75A1,1,0,0,1,37,67.75Z"/><path d="M37,26.844a1,1,0,0,1-1-1V7.25a1,1,0,0,1,2,0V25.844A1,1,0,0,1,37,26.844Z"/><path d="M62.239,53.74a1,1,0,0,1-.845-1.532,28.621,28.621,0,0,0,2.259-4.424,1,1,0,0,1,1.854.753,30.654,30.654,0,0,1-2.42,4.735A1,1,0,0,1,62.239,53.74Z"/><path d="M37,67.75A30.621,30.621,0,0,1,8.493,48.535a1,1,0,0,1,1.854-.75,28.757,28.757,0,0,0,38.1,15.588,1,1,0,1,1,.8,1.834A30.5,30.5,0,0,1,37,67.75Z"/><path d="M54.931,61.74a1,1,0,0,1-.6-1.8,27.709,27.709,0,0,0,2.24-1.882,1,1,0,0,1,1.364,1.462,29.776,29.776,0,0,1-2.4,2.018A.992.992,0,0,1,54.931,61.74Z"/><path d="M64.582,26.844a1,1,0,0,1-.927-.625,28.754,28.754,0,0,0-53.31,0,1,1,0,1,1-1.854-.75,30.754,30.754,0,0,1,57.018,0,1,1,0,0,1-.552,1.3A1.012,1.012,0,0,1,64.582,26.844Z"/><path d="M68.875,49.156H5.125A3.129,3.129,0,0,1,2,46.031V27.969a3.129,3.129,0,0,1,3.125-3.125h63.75A3.129,3.129,0,0,1,72,27.969V46.031A3.129,3.129,0,0,1,68.875,49.156ZM5.125,26.844A1.127,1.127,0,0,0,4,27.969V46.031a1.127,1.127,0,0,0,1.125,1.125h63.75A1.127,1.127,0,0,0,70,46.031V27.969a1.127,1.127,0,0,0-1.125-1.125Z"/><path d="M26.685,31.93,23.876,42.07H22.59l-2.435-8.812L17.713,42.07H16.426l-2.8-10.14h1.411l2.027,8.259,2.283-8.259h1.611l2.283,8.259,2.027-8.259Z"/><path d="M23.971,42.2H22.5l-2.34-8.468L17.808,42.2H16.332l-2.871-10.39h1.673l1.935,7.889,2.182-7.889h1.8l2.181,7.889,1.936-7.889h1.68Zm-1.286-.25h1.1l2.74-9.89H25.364l-2.117,8.629-2.385-8.629H19.44l-2.384,8.629-2.118-8.629H13.789l2.732,9.89h1.1l2.537-9.156Z"/><path d="M43.53,31.93,40.721,42.07H39.435L37,33.258,34.558,42.07H33.272l-2.8-10.14h1.411l2.027,8.259,2.283-8.259H37.8l2.283,8.259,2.027-8.259Z"/><path d="M40.816,42.2H39.34L37,33.727,34.653,42.2H33.177l-2.871-10.39h1.673l1.936,7.889L36.1,31.805h1.8l2.181,7.889,1.937-7.889h1.679Zm-1.287-.25h1.1l2.739-9.89H42.21l-2.118,8.629-2.384-8.629H36.285L33.9,40.684l-2.118-8.629H30.634l2.732,9.89h1.1L37,32.789Z"/><path d="M60.375,31.93,57.567,42.07H56.28l-2.435-8.812L51.4,42.07H50.117l-2.8-10.14h1.411l2.027,8.259,2.283-8.259h1.612l2.282,8.259,2.027-8.259Z"/><path d="M57.661,42.2H56.186l-2.341-8.468L51.5,42.2H50.022l-2.871-10.39h1.673l1.936,7.889,2.181-7.889h1.8l2.182,7.889,1.935-7.889h1.68Zm-1.286-.25h1.1l2.739-9.89H59.055l-2.117,8.629-2.385-8.629H53.131l-2.385,8.629-2.117-8.629h-1.15l2.733,9.89h1.1l2.536-9.156Z"/></svg>
